# xmcd CD database file
#
# Track frame offsets:
#	150
#	15902
#	37139
#	57381
#	69702
#	84320
#	105842
#	126914
#	147520
#	158562
#	177209
#
# Disc length: 2613 seconds
#
# Revision: 3
# Processed by: cddbd v1.5.1PL2 Copyright (c) Steve Scherf et al.
# Submitted via: CDex 1.51
#
DISCID=8b0a330b
DTITLE=Anna Maria Jopek - Secret
DYEAR=2005
DGENRE=Jazz
TTITLE0=I Burn For You
TTITLE1=Don't Speak
TTITLE2=Insatiable
TTITLE3=Cherry Tree
TTITLE4=Secret
TTITLE5=The Wind
TTITLE6=Moondance
TTITLE7=A Thousand Years
TTITLE8=Until You Sleep
TTITLE9=Only Water
TTITLE10=All The Virtues
EXTD=YEAR: 2005
EXTT0=
EXTT1=
EXTT2=
EXTT3=
EXTT4=
EXTT5=
EXTT6=
EXTT7=
EXTT8=
EXTT9=
EXTT10=
PLAYORDER=
